<?xml version="1.0" standalone="no"?>
<svg xmlns:xlink="http://www.w3.org/1999/xlink" id="wave" style="transform:rotate(180deg); transition: 0.3s" viewBox="0 0 1440 100" version="1.1" xmlns="http://www.w3.org/2000/svg"><defs><linearGradient id="sw-gradient-0" x1="0" x2="0" y1="1" y2="0"><stop stop-color="rgba(255, 249, 234, 1)" offset="0%"/><stop stop-color="rgba(255, 249, 234, 1)" offset="100%"/></linearGradient></defs><path style="transform:translate(0, 0px); opacity:1" fill="url(#sw-gradient-0)" d="M0,60L26.7,50C53.3,40,107,20,160,15C213.3,10,267,20,320,31.7C373.3,43,427,57,480,65C533.3,73,587,77,640,76.7C693.3,77,747,73,800,63.3C853.3,53,907,37,960,26.7C1013.3,17,1067,13,1120,20C1173.3,27,1227,43,1280,56.7C1333.3,70,1387,80,1440,85C1493.3,90,1547,90,1600,88.3C1653.3,87,1707,83,1760,70C1813.3,57,1867,33,1920,25C1973.3,17,2027,23,2080,35C2133.3,47,2187,63,2240,58.3C2293.3,53,2347,27,2400,18.3C2453.3,10,2507,20,2560,31.7C2613.3,43,2667,57,2720,55C2773.3,53,2827,37,2880,26.7C2933.3,17,2987,13,3040,10C3093.3,7,3147,3,3200,10C3253.3,17,3307,33,3360,45C3413.3,57,3467,63,3520,55C3573.3,47,3627,23,3680,11.7C3733.3,0,3787,0,3813,0L3840,0L3840,100L3813.3,100C3786.7,100,3733,100,3680,100C3626.7,100,3573,100,3520,100C3466.7,100,3413,100,3360,100C3306.7,100,3253,100,3200,100C3146.7,100,3093,100,3040,100C2986.7,100,2933,100,2880,100C2826.7,100,2773,100,2720,100C2666.7,100,2613,100,2560,100C2506.7,100,2453,100,2400,100C2346.7,100,2293,100,2240,100C2186.7,100,2133,100,2080,100C2026.7,100,1973,100,1920,100C1866.7,100,1813,100,1760,100C1706.7,100,1653,100,1600,100C1546.7,100,1493,100,1440,100C1386.7,100,1333,100,1280,100C1226.7,100,1173,100,1120,100C1066.7,100,1013,100,960,100C906.7,100,853,100,800,100C746.7,100,693,100,640,100C586.7,100,533,100,480,100C426.7,100,373,100,320,100C266.7,100,213,100,160,100C106.7,100,53,100,27,100L0,100Z"/></svg>